#define app_icon_width 16
#define app_icon_height 16
static unsigned char app_icon_bits[] = {
  0x00,0x00,
  0xc0,0x00,
  0x20,0x01,
  0x10,0x02,
  0x08,0x04,
  0x04,0x08,
  0x02,0x10,
  0x01,0x20,
  0x02,0x10,
  0x04,0x08,
  0x08,0x04,
  0x10,0x02,
  0x20,0x01,
  0xc0,0x00,
  0x00,0x00,
  0x00,0x00};
